<svg xmlns="http://www.w3.org/2000/svg" width="675.433" height="411.45" viewBox="0 0 675.433 411.45">
  <g id="Group_2" data-name="Group 2" transform="translate(-77.462 -203.284)">
    <path id="Path_31" data-name="Path 31" d="M792,565.367a192.184,192.184,0,0,1-105.99,171.7q-2.445,1.23-4.94,2.39a192.754,192.754,0,0,1-137.16,9.59q-6.675-2.04-13.14-4.54A191.99,191.99,0,0,1,600,373.367C706.037,373.367,792,459.327,792,565.367Z" transform="translate(-195.329 -142.633)" fill="#f2f2f2"/>
    <path id="Path_32" data-name="Path 32" d="M805.924,592.731c28.622-31.077,43.35-77.6,27.918-116.933A194.659,194.659,0,0,1,731.856,562.17C715.2,568.223,696.051,573.222,687,588.458c-5.629,9.48-6.028,21.346-3.477,32.072s7.791,20.59,12.98,30.318l.032,2.752C737.074,641.688,777.3,623.808,805.924,592.731Z" transform="translate(-195.329 -142.633)" fill="#e6e6e6"/>
    <path id="Path_33" data-name="Path 33" d="M832.981,476.008a166.381,166.381,0,0,1-44.719,92.083c-5.22,5.374-10.984,10.371-17.646,13.878a41.094,41.094,0,0,1-21.15,4.52c-6.84-.244-13.807-1.285-20.587.138-7.146,1.5-12.8,6.114-16.469,12.338-4.488,7.615-5.972,16.389-7.126,25.02-1.28,9.583-2.459,19.556-7.931,27.8-.663,1,.926,1.97,1.588.972,9.521-14.349,6.313-32.672,12.731-48.143,2.995-7.219,8.183-13.579,15.947-15.766,6.789-1.912,13.975-.844,20.9-.537,7.269.322,14.189-.571,20.845-3.649,6.808-3.149,12.779-7.931,18.114-13.148a161.42,161.42,0,0,0,29.812-40.7,169.33,169.33,0,0,0,17.554-54.77c.166-1.184-1.7-1.214-1.862-.038Z" transform="translate(-195.329 -142.633)" fill="#fff"/>
    <path id="Path_34" data-name="Path 34" d="M796.537,560.426a24.962,24.962,0,0,0,32.234-2.4c.85-.844-.422-2.2-1.273-1.359a23.115,23.115,0,0,1-29.989,2.173c-.965-.71-1.931.882-.972,1.588Z" transform="translate(-195.329 -142.633)" fill="#fff"/>
    <path id="Path_35" data-name="Path 35" d="M752.918,587.07a48.113,48.113,0,0,1,7.258-34.3c.659-1-.93-1.972-1.588-.972a50.045,50.045,0,0,0-7.48,35.712c.2,1.184,2.009.742,1.81-.436Z" transform="translate(-195.329 -142.633)" fill="#fff"/>
    <path id="Path_36" data-name="Path 36" d="M823.758,513.516a14.13,14.13,0,0,1-8.136-10.657c-.185-1.186-1.994-.742-1.81.436a15.834,15.834,0,0,0,8.974,11.81.962.962,0,0,0,1.28-.308.936.936,0,0,0-.308-1.28Z" transform="translate(-195.329 -142.633)" fill="#fff"/>
    <path id="Path_37" data-name="Path 37" d="M697.926,431.2c.094.744.189,1.487.272,2.242a186.085,186.085,0,0,1,1.2,30.161c-.02.779-.052,1.568-.094,2.345a196.175,196.175,0,0,1-16.965,70.2,190.506,190.506,0,0,1-13.858,25.413c-7.261,11.2-16.024,22.758-19.072,35.329a32.679,32.679,0,0,0-.753,3.974l44.52,52.561c.161.069.311.148.472.217l1.682,2.18c.3-.4.6-.82.9-1.219.175-.231.34-.473.516-.7.114-.158.227-.316.338-.452.038-.052.076-.105.1-.147.112-.136.2-.274.3-.4q2.549-3.519,5.058-7.085c.012-.01.012-.01.014-.032,12.7-18.15,23.993-37.52,31.988-57.988.24-.616.493-1.241.713-1.881a181.782,181.782,0,0,0,8.346-28.468,160.71,160.71,0,0,0,2.424-16.079,133.642,133.642,0,0,0-2.5-41.71c-6.014-27.282-20.687-52.337-43.832-67.334C699.113,431.943,698.53,431.57,697.926,431.2Z" transform="translate(-195.329 -142.633)" fill="#e6e6e6"/>
    <path id="Path_38" data-name="Path 38" d="M697.359,431.881a166.381,166.381,0,0,1,19.735,100.447c-.933,7.434-2.525,14.894-5.733,21.7a41.094,41.094,0,0,1-14.166,16.343c-5.608,3.923-11.8,7.287-16.355,12.5-4.8,5.5-6.539,12.589-5.721,19.767,1,8.783,5.1,16.682,9.374,24.267,4.747,8.422,9.811,17.095,10.407,26.974.072,1.2,1.925,1.015,1.853-.18-1.037-17.189-14.631-29.887-18.82-46.1-1.955-7.567-1.641-15.769,3.241-22.189,4.269-5.614,10.65-9.088,16.362-13.011,6-4.119,10.985-9,14.446-15.464,3.54-6.613,5.428-14.027,6.547-21.4a161.419,161.419,0,0,0-.7-50.446,169.331,169.331,0,0,0-18.96-54.3c-.58-1.045-2.086.053-1.509,1.091Z" transform="translate(-195.329 -142.633)" fill="#fff"/>
    <path id="Path_39" data-name="Path 39" d="M719.085,521.225A24.962,24.962,0,0,0,743.376,499.9c.17-1.186-1.664-1.506-1.835-.319a23.115,23.115,0,0,1-22.637,19.79C717.707,519.385,717.894,521.239,719.085,521.225Z" transform="translate(-195.329 -142.633)" fill="#fff"/>
    <path id="Path_40" data-name="Path 40" d="M700.3,568.76A48.113,48.113,0,0,1,685.441,537c-.076-1.2-1.93-1.015-1.853.18A50.045,50.045,0,0,0,699.117,570.2c.872.825,2.051-.618,1.183-1.438Z" transform="translate(-195.329 -142.633)" fill="#fff"/>
    <path id="Path_41" data-name="Path 41" d="M712.577,467.381a14.13,14.13,0,0,1-12.912-3.611c-.862-.835-2.039.608-1.183,1.438a15.834,15.834,0,0,0,14.276,4.026.962.962,0,0,0,.837-1.017.936.936,0,0,0-1.017-.837Z" transform="translate(-195.329 -142.633)" fill="#fff"/>
    <path id="Path_46" data-name="Path 46" d="M414.21,643.487c-22.836-24.794-34.586-61.915-22.274-93.293A155.3,155.3,0,0,0,473.3,619.1c13.286,4.83,28.567,8.818,35.784,20.974,4.491,7.564,4.809,17.031,2.774,25.588s-6.216,16.427-10.356,24.189l-.026,2.2C469.141,682.546,437.046,668.281,414.21,643.487Z" transform="translate(-195.329 -142.633)" fill="#e6e6e6"/>
    <path id="Path_47" data-name="Path 47" d="M392.623,550.361A132.744,132.744,0,0,0,428.3,623.828,57.165,57.165,0,0,0,442.379,634.9a32.786,32.786,0,0,0,16.874,3.606c5.457-.195,11.016-1.026,16.425.11a20.075,20.075,0,0,1,13.139,9.844c3.581,6.076,4.765,13.076,5.685,19.962,1.022,7.645,1.962,15.6,6.328,22.182.529.8-.739,1.571-1.267.775-7.6-11.448-5.036-26.067-10.157-38.41-2.389-5.759-6.529-10.834-12.723-12.578-5.417-1.526-11.15-.674-16.673-.429a34.987,34.987,0,0,1-16.631-2.912,52.848,52.848,0,0,1-14.452-10.49,128.785,128.785,0,0,1-23.785-32.472,135.1,135.1,0,0,1-14-43.7c-.132-.945,1.354-.968,1.486-.03Z" transform="translate(-195.329 -142.633)" fill="#fff"/>
    <path id="Path_48" data-name="Path 48" d="M421.7,617.712a19.916,19.916,0,0,1-25.718-1.916c-.678-.674.337-1.759,1.016-1.085a18.442,18.442,0,0,0,23.926,1.734c.77-.567,1.541.7.775,1.267Z" transform="translate(-195.329 -142.633)" fill="#fff"/>
    <path id="Path_49" data-name="Path 49" d="M456.5,638.97a38.386,38.386,0,0,0-5.79-27.369c-.526-.8.742-1.574,1.267-.775a39.928,39.928,0,0,1,5.967,28.492c-.16.944-1.6.592-1.444-.348Z" transform="translate(-195.329 -142.633)" fill="#fff"/>
    <path id="Path_50" data-name="Path 50" d="M399.982,580.286a11.274,11.274,0,0,0,6.491-8.5c.148-.946,1.591-.592,1.444.348a12.633,12.633,0,0,1-7.16,9.422.768.768,0,0,1-1.021-.246.747.747,0,0,1,.246-1.021Z" transform="translate(-195.329 -142.633)" fill="#fff"/>
    <path id="Path_51" data-name="Path 51" d="M500.375,514.609c-.075.593-.151,1.187-.217,1.789a148.465,148.465,0,0,0-.96,24.064c.016.622.041,1.251.075,1.871a156.514,156.514,0,0,0,13.536,56.011,152,152,0,0,0,11.056,20.276c5.793,8.933,12.784,18.157,15.216,28.187a26.069,26.069,0,0,1,.6,3.171l-35.52,41.935c-.129.055-.248.118-.377.173l-1.342,1.739c-.24-.318-.481-.654-.721-.972-.14-.184-.272-.378-.411-.562-.091-.126-.181-.252-.27-.36-.03-.042-.06-.084-.081-.118-.089-.108-.16-.218-.24-.318q-2.034-2.807-4.036-5.653c-.01-.008-.01-.008-.011-.026-10.131-14.481-19.142-29.935-25.521-46.265-.192-.491-.393-.99-.569-1.5a145.033,145.033,0,0,1-6.658-22.713,128.207,128.207,0,0,1-1.934-12.828,106.622,106.622,0,0,1,1.994-33.277c4.8-21.767,16.5-41.756,34.971-53.722C499.428,515.2,499.893,514.907,500.375,514.609Z" transform="translate(-195.329 -142.633)" fill="#e6e6e6"/>
    <path id="Path_52" data-name="Path 52" d="M500.827,515.154a132.744,132.744,0,0,0-15.745,80.14,57.164,57.164,0,0,0,4.574,17.317,32.786,32.786,0,0,0,11.3,13.039c4.474,3.13,9.413,5.814,13.048,9.977a20.075,20.075,0,0,1,4.564,15.771c-.8,7.007-4.068,13.309-7.479,19.361-3.787,6.719-7.828,13.639-8.3,21.521-.058.955-1.536.81-1.479-.144.828-13.714,11.673-23.845,15.015-36.783,1.56-6.037,1.31-12.581-2.586-17.7-3.406-4.479-8.5-7.251-13.055-10.381a34.985,34.985,0,0,1-11.526-12.338,52.847,52.847,0,0,1-5.223-17.077,128.785,128.785,0,0,1,.56-40.247,135.1,135.1,0,0,1,15.127-43.322c.463-.834,1.664.042,1.2.871Z" transform="translate(-195.329 -142.633)" fill="#fff"/>
    <path id="Path_53" data-name="Path 53" d="M483.493,586.437a19.916,19.916,0,0,1-19.381-17.014c-.136-.946,1.328-1.2,1.464-.254a18.442,18.442,0,0,0,18.06,15.789c.956.011.807,1.49-.144,1.479Z" transform="translate(-195.329 -142.633)" fill="#fff"/>
    <path id="Path_54" data-name="Path 54" d="M498.481,624.362a38.386,38.386,0,0,0,11.855-25.339c.061-.955,1.54-.81,1.479.144a39.928,39.928,0,0,1-12.39,26.342c-.7.658-1.636-.493-.944-1.147Z" transform="translate(-195.329 -142.633)" fill="#fff"/>
    <path id="Path_55" data-name="Path 55" d="M488.686,543.478a11.273,11.273,0,0,0,10.3-2.881c.687-.667,1.627.485.944,1.147a12.633,12.633,0,0,1-11.39,3.212.768.768,0,0,1-.667-.811.747.747,0,0,1,.811-.667Z" transform="translate(-195.329 -142.633)" fill="#fff"/>
    <path id="Path_59" data-name="Path 59" d="M902.333,540.776c7.149,4.853,15.1,10.313,17.4,19.171a14.569,14.569,0,0,1-1.484,11.335c-1.835,3.058-4.568,5.461-7.234,7.776-3.167,2.751-6.36,5.454-8.817,8.888-1.125,1.573,1.475,3.072,2.59,1.514,4.556-6.367,12.127-9.974,16.136-16.806,4.742-8.081,1.577-17.664-4.3-24.206-3.667-4.082-8.266-7.2-12.778-10.263-1.6-1.087-3.1,1.511-1.514,2.59Z" transform="translate(-195.329 -142.633)" fill="#e6e7e8"/>
    <path id="Path_60" data-name="Path 60" d="M927.333,540.776c7.149,4.853,15.1,10.313,17.4,19.171a14.569,14.569,0,0,1-1.484,11.335c-1.835,3.058-4.568,5.461-7.234,7.776-3.167,2.751-6.36,5.454-8.817,8.888-1.125,1.573,1.475,3.072,2.59,1.514,4.556-6.367,12.127-9.974,16.136-16.806,4.742-8.081,1.578-17.664-4.3-24.206-3.667-4.082-8.266-7.2-12.778-10.263-1.6-1.087-3.1,1.511-1.514,2.59Z" transform="translate(-195.329 -142.633)" fill="#e6e7e8"/>
    <path id="Path_61" data-name="Path 61" d="M318.681,540.776c-7.149,4.853-15.1,10.313-17.4,19.171a14.569,14.569,0,0,0,1.484,11.335c1.834,3.058,4.568,5.461,7.234,7.776,3.167,2.751,6.36,5.454,8.817,8.888,1.125,1.573-1.475,3.072-2.59,1.514-4.556-6.367-12.127-9.974-16.137-16.806-4.742-8.081-1.577-17.664,4.3-24.206,3.667-4.082,8.266-7.2,12.778-10.263,1.6-1.087,3.1,1.511,1.514,2.59Z" transform="translate(-195.329 -142.633)" fill="#e6e7e8"/>
    <path id="Path_62" data-name="Path 62" d="M293.681,540.776c-7.149,4.853-15.1,10.313-17.4,19.171a14.569,14.569,0,0,0,1.484,11.335c1.835,3.058,4.568,5.461,7.234,7.776,3.167,2.751,6.36,5.454,8.817,8.888,1.125,1.573-1.475,3.072-2.59,1.514-4.556-6.367-12.127-9.974-16.137-16.806-4.742-8.081-1.578-17.664,4.3-24.206,3.667-4.082,8.266-7.2,12.778-10.263,1.6-1.087,3.1,1.511,1.514,2.59Z" transform="translate(-195.329 -142.633)" fill="#e6e7e8"/>
    <circle id="Ellipse_7" data-name="Ellipse 7" cx="23.33" cy="23.33" r="23.33" transform="translate(350.791 247.629)" fill="#2f2e41"/>
    <circle id="Ellipse_8" data-name="Ellipse 8" cx="59.104" cy="59.104" r="59.104" transform="translate(352.345 264.738)" fill="#2f2e41"/>
    <circle id="Ellipse_9" data-name="Ellipse 9" cx="48.028" cy="48.028" r="48.028" transform="translate(368.312 286.874)" fill="#9e616a"/>
    <path id="Path_63" data-name="Path 63" d="M644.285,428.577a55.015,55.015,0,0,0-83.642,48.014c24.473,6.144,50.183,10.847,76.282,1.47l6.163-15.084,3.634,15.1c7.948,3.249,15.916,6,23.885-.031A56.174,56.174,0,0,0,644.285,428.577Z" transform="translate(-195.329 -142.633)" fill="#2f2e41"/>
    <path id="Path_64" data-name="Path 64" d="M520.191,566.367h-.063a15.66,15.66,0,0,1-14.71-9.889,16,16,0,0,1,3.652-17.733l.27-.268A49.1,49.1,0,0,0,523.6,504.056c.011-18.219-10.187-35.057-19.748-49.409l-1.762-2.64c-9.528-14.253-19.38-28.991-21.888-45.969-2.663-18.031,4.165-37.062,17.394-48.486,13.732-11.856,34.433-15.043,50.343-7.749,16.49,7.561,27.1,26.4,24.674,43.814l-.025.181-5.795,5.213-.213-.016c-13.722-1.058-27.39,7.983-31.806,21.011-2.974,8.77-1.9,18.379-.307,27.457A242.679,242.679,0,0,0,551.427,503.3q.6,1.361,1.215,2.732c4.593,10.284,9.342,20.918,7.523,31.933-2.875,17.407-21.351,27.594-37.276,28.34Q521.537,566.368,520.191,566.367Z" transform="translate(-195.329 -142.633)" fill="#2f2e41"/>
    <path id="Path_65" data-name="Path 65" d="M729.127,707.467a192.588,192.588,0,0,1-43.12,29.6l-3.31-10.66-2.67,10.39,1.04,2.66c-1.15.54-2.31,1.06-3.47,1.57q-1.485.66-2.97,1.29a192.837,192.837,0,0,1-114.76,10.84c-1.01-.21-2.01-.43-3.01-.66-4.37-1-8.69-2.16-12.95-3.45l5.96-22.16-5.3-26.79-13.8,44.41a191.757,191.757,0,0,1-44.02-24.08c4.24-27.41,9.21-60.31,12.28-83.08,1.11-8.32,1.97-15.28,2.45-20.14a61.935,61.935,0,0,1,2.66-13.41,36.553,36.553,0,0,1,2.59-6.1c.22-.43.46-.84.7-1.24s.47-.76.72-1.12c6.14-9.15,14.02-8.59,14.02-8.59l23.52-4.59,7.35-1.44,2.99-.58,3.66-.72a20.377,20.377,0,0,0,13.55-9.48l9.99-16.59a20.453,20.453,0,0,1,8.96-8.01c.45-.2.91-.39,1.37-.57a20.2,20.2,0,0,1,6.34-1.27l14.14-.55,5.72-.23,7.81-.3a20.011,20.011,0,0,1,5.48.54h.01c.63.15,1.23.32,1.84.53a20.355,20.355,0,0,1,11.17,9.2l6.98,12.24a20.387,20.387,0,0,0,15.19,10.13l2.68.33,3.01.38,7.61.95,13.9,1.74.03.53c2.66.21,10.24,1.77,15.32,12.6.34.71.66,1.47.97,2.26a57.825,57.825,0,0,1,3.37,14.92c.03.22.05.44.07.66C716.9,626.757,723.487,670.947,729.127,707.467Z" transform="translate(-195.329 -142.633)" fill="#2f2e41"/>
    <path id="Path_66" data-name="Path 66" d="M615.876,752.787l-.949,4.43-2.93-.63.871-4.063a168.289,168.289,0,0,0,3.7-39.028l-3.682-165.739-.07-2.98-.04-1.81,1.52-.03,1.48-.03.15,6.88,3.642,164.007A168.289,168.289,0,0,1,615.876,752.787Z" transform="translate(-195.329 -142.633)" fill="#be3b49"/>
    <path id="Path_67" data-name="Path 67" d="M303.018,499.674l42.18,5.76,2.95.4,1.8.25-.21,1.5-.21,1.47-6.82-.93-40.1-5.48Z" fill="#be3b49"/>
    <path id="Path_68" data-name="Path 68" d="M624.227,545.707l-4.47-2.99-5.46.22-.26.01-1.22,1.83.07,2.98,3.04,2.03,3.85,2.57a4,4,0,0,0,4.45-6.65Zm-.56,4.44a2,2,0,1,1-.55-2.78A2,2,0,0,1,623.667,550.147Z" transform="translate(-195.329 -142.633)" fill="#be3b49"/>
  </g>
</svg>
