<svg id="Group_10" data-name="Group 10" xmlns="http://www.w3.org/2000/svg" width="596.912" height="505.575" viewBox="0 0 596.912 505.575">
  <g id="Group_2" data-name="Group 2">
    <path id="Path_31" data-name="Path 31" d="M575.427,413.7H21.485A21.509,21.509,0,0,1,0,392.211V325.54H596.912v66.671A21.509,21.509,0,0,1,575.427,413.7Z" fill="#e6e6e6"/>
    <rect id="Rectangle_1" data-name="Rectangle 1" width="141.262" height="100.901" transform="translate(228.887 402.544)" fill="#e6e6e6"/>
    <rect id="Rectangle_2" data-name="Rectangle 2" width="158.256" height="12.745" transform="translate(220.39 490.7)" fill="#e6e6e6"/>
    <path id="Path_32" data-name="Path 32" d="M596.381,353.686H0V14.744A14.761,14.761,0,0,1,14.744,0H581.637a14.761,14.761,0,0,1,14.744,14.744V353.686Z" fill="#3f3d56"/>
    <rect id="Rectangle_3" data-name="Rectangle 3" width="568.234" height="319.698" transform="translate(13.808 15.401)" fill="#fff"/>
  </g>
  <g id="Group_6" data-name="Group 6">
    <path id="uuid-25324785-d0f2-4f1c-ad19-f4bb5410ff47" d="M123.853,205.949c4.349-3.594,9.729-4.263,12.015-1.494s.614,7.924-3.737,11.519a14.119,14.119,0,0,1-5.958,2.995l-18.62,14.994-6.85-8.888,19.083-13.838a14.12,14.12,0,0,1,4.066-5.288Z" fill="#ffb6b6"/>
    <path id="Path_33" data-name="Path 33" d="M16.233,239.779c-.009-.663,0-6.447,4.279-10.1,4.919-4.2,11.86-2.5,14.294-1.9,5.624,1.377,6.085,3.79,11.366,6.268,9.881,4.637-2.5,2.264,3.38.777,2.035-.515,31.312-2.545,38.6-7.031,14.174-8.724,23.831-14.014,23.831-14.014L118.3,226.4a112.53,112.53,0,0,1-21.977,22.1c-13.179,9.646-19.769,14.469-29.783,16.332-.862.16-22.072,3.782-39.155-8.981-3.9-2.911-11.036-8.245-11.147-16.07Z" fill="#be3b49"/>
    <circle id="Ellipse_4" data-name="Ellipse 4" cx="21.993" cy="21.993" r="21.993" transform="translate(13.824 163.682)" fill="#ffb6b6"/>
    <g id="Group_3" data-name="Group 3">
      <path id="Path_34" data-name="Path 34" d="M208.055,333.43,185.4,310.246l-11.691,12.2,16.874,22.229,16.738,1.915Z" fill="#ffb6b6"/>
      <path id="Path_35" data-name="Path 35" d="M78.726,289.954c1.325.11,5.535.953,9.558-1.26a13.073,13.073,0,0,0,4.63-4.472c5.9-8.863,28.552-22.685,48.881-23.535,4.6-.193,7.634.341,10.388,1.776,3.905,2.036,5.464,4.952,10.42,11.783,2.711,3.737,5.71,7.257,8.454,10.97,16.062,21.736,22.151,23.443,21.529,30.411-.691,7.732-9.029,15.067-14.571,14.22-2.27-.347-3.149-1.925-6.181-5.12-8.891-9.368-12.57-7.637-18.9-14.812-7.391-8.377-6.423-15.323-10.279-15.591-3.576-.249-5.1,5.677-12.729,13.548-3.493,3.6-5.98,5.254-13.559,10.511C86.857,338.856,86.386,340.3,80.43,341.928c-2.606.714-21.1,5.785-27.688-2.284-10.31-12.627,14.046-50.682,25.983-49.69Z" fill="#2f2e41"/>
      <path id="Path_36" data-name="Path 36" d="M201.13,338.669c1.666-.748,3.614-1.623,4.24-3.634a4.835,4.835,0,0,0-.7-4.2c-1.011-1.338-2.508-1.514-2.448-1.751.092-.36,3.632-.22,7.517,1.154a30.075,30.075,0,0,1,8.28,4.772c3.385,2.643,2.93,3.173,5.053,4.7,6.516,4.678,12.628.991,16.154,5.378a6.949,6.949,0,0,1,1.369,6.04c-1.15,3.9-6.743,5.246-9.8,5.94-7.361,1.67-12.934.307-18.752-.674-19.787-3.334-30.9-.3-32.392-4.882-.282-.868.176-.794,1.7-7.16,1.506-6.284,1.456-8.009,2.739-8.513,1.93-.757,3.227,2.688,8.089,3.867a13.78,13.78,0,0,0,8.944-1.036Z" fill="#2f2e41"/>
    </g>
    <g id="Group_4" data-name="Group 4">
      <path id="Path_37" data-name="Path 37" d="M167.788,409.275l-5.723-31.9L145.542,380.9l1.481,27.869L159.8,419.751Z" fill="#ffb6b6"/>
      <path id="Path_38" data-name="Path 38" d="M85.188,300.678c1.034.835,4.044,3.9,8.617,4.325a13.073,13.073,0,0,0,6.342-1.1c9.86-4.02,36.364-2.737,53.662,7.974,3.917,2.426,6.125,4.569,7.6,7.3,2.088,3.877,1.741,7.166,2.006,15.6.145,4.614.65,9.211.835,13.824,1.085,27.005,5.165,31.836.737,37.253-4.913,6.01-15.932,7.4-20.042,3.584-1.683-1.561-1.524-3.361-2.239-7.707-2.1-12.744-6.112-13.378-7.321-22.869-1.411-11.082,3.29-16.286.25-18.673-2.819-2.214-7.4,1.836-18.141,4.063-4.913,1.019-7.9.989-17.122,1.084-35.915.369-37.112,1.3-42.957-.7-2.557-.872-20.707-7.062-21.627-17.438-1.44-16.237,40.082-34.049,49.4-26.526Z" fill="#2f2e41"/>
      <path id="Path_39" data-name="Path 39" d="M159.116,409.722c1.8.316,3.9.687,5.549-.626a4.835,4.835,0,0,0,1.781-3.865c-.086-1.675-1.225-2.661-1.042-2.823.279-.246,3.128,1.858,5.572,5.176a30.074,30.074,0,0,1,4.172,8.6c1.317,4.088.643,4.27,1.543,6.723,2.765,7.53,9.893,7.911,10.347,13.521a6.949,6.949,0,0,1-2.26,5.767c-3.143,2.584-8.525.555-11.444-.588-7.029-2.752-10.874-7.009-15.138-11.087-14.5-13.87-25.4-17.6-24.062-22.228.254-.876.591-.558,5.429-4.969,4.775-4.354,5.7-5.81,7.046-5.506,2.023.457,1.16,4.036,4.522,7.742a13.78,13.78,0,0,0,7.983,4.165Z" fill="#2f2e41"/>
    </g>
    <path id="Path_40" data-name="Path 40" d="M38.815,189.879c.856-3.063-.219-4.179.877-5.554,0,0,.441-.553,4.384-2.046h0c-1.163-6.75-.292-7.892-.292-7.892a4.948,4.948,0,0,1,4.384-1.461c2.9.364,3.408,2.982,5.261,2.923,2.56-.081,5.63-5.2,4.677-9.646-.777-3.622-4.129-6.313-4.969-5.846s-3.832-1.578-4.969-1.169c-.777.279-4.432-.092-5.261.292-.905.42-3.5,3.035-3.745,2.705-1.722-2.289-1.686-3.089-2.685-3.582-1.771-.874-3.7.742-7.015,2.338-6.83,3.285-8.829,1.325-11.984,4.092-1.594,1.4-2.448,4.069-4.092,9.353-2.3,7.391-3.449,11.086-2.338,14.615,1.132,3.6,2.8,2.815,5.261,7.892,2.74,5.651,1.8,8.936,4.384,10.23,2,1,5.216.364,6.43-1.461,2.079-3.125-3.294-7.352-1.461-12.276,1.125-3.023,4.595-5.315,6.723-4.677,2.406.722,2.583,5.036,4.092,4.969,1.292-.057,2.189-3.266,2.338-3.8Z" fill="#2f2e41"/>
    <path id="Path_41" data-name="Path 41" d="M22.154,210.924c4.5-5.046,22.832.177,24.553,8.184.708,3.294-1.9,4.684-1.169,8.476,1.076,5.547,7.169,5.169,11.692,10.815,6.421,8.016-.194,15.852,7.015,29.229,1.54,2.859,2.839,5.268,5.554,7.6,6.23,5.351,12.027,3.516,15.2,8.477,2.372,3.71,1.4,8.282,1.169,9.353-.936,4.392-3.473,5.462-5.261,9.061-2.975,5.988.393,10.384.585,17.538.239,8.951-4.517,21.358-14.03,25.43-10.687,4.574-23.577-3-29.814-10.522-3.722-4.488-4.8-8.628-6.43-13.738-7.277-22.837-11.388-20.772-16.953-38.875-6.362-20.7-7.612-44.94,0-52.613a21.911,21.911,0,0,0,5.554-7.6c2.379-5.7.324-8.556,2.338-10.815Z" fill="#be3b49"/>
    <g id="Group_5" data-name="Group 5">
      <path id="uuid-91308677-eda7-42a2-9f2e-a07e84038198" d="M88.653,328.391c3.489,4.433,4.03,9.827,1.208,12.047s-7.937.426-11.427-4.01a14.119,14.119,0,0,1-2.852-6.028L61.036,311.43l7.517-5.733,14.911,18.5a14.12,14.12,0,0,1,5.19,4.191Z" fill="#ffb6b6"/>
      <path id="Path_42" data-name="Path 42" d="M35.377,230.155c.647-.145,6.311-1.319,10.764,2.127,5.115,3.959,4.867,11.1,4.78,13.605-.2,5.786-2.468,6.73-3.817,12.406-2.524,10.619,2.283,20.487,4.938,25.939a56.624,56.624,0,0,0,9.75,13.881,123.106,123.106,0,0,0,21.632,18.46l-10.958,9.74s-17.455-5.32-29.282-15.979C31.052,299.4,12.395,260.716,8.527,251.292c-.333-.812,4.385,12.382,13.394-6.946,2.055-4.409,5.82-12.486,13.457-14.192Z" fill="#be3b49"/>
    </g>
  </g>
  <g id="Group_7" data-name="Group 7">
    <path id="Path_43" data-name="Path 43" d="M315.838,221.081l-13.084-6.2c5.366,7.489,9.99,19.185,12.466,28.493,4.191-8.67,10.948-19.278,17.637-25.614l-13.828,3.557c8.521-41.76,40.569-71.739,77.27-71.739l.52-1.508c-38.334,0-72.28,29.564-80.98,73.01Z" fill="#3f3d56"/>
    <path id="Path_44" data-name="Path 44" d="M376.057,284.71H293.389a6.359,6.359,0,0,1,0-12.718h82.668a6.359,6.359,0,0,1,0,12.718Z" fill="#be3b49"/>
    <path id="Path_45" data-name="Path 45" d="M486.057,284.71H403.389a6.359,6.359,0,0,1,0-12.718h82.668a6.359,6.359,0,0,1,0,12.718Z" fill="#e6e6e6"/>
  </g>
  <g id="Group_8" data-name="Group 8">
    <path id="Path_46" data-name="Path 46" d="M437.118,111.717H356.761a3.674,3.674,0,1,1,0-7.348h80.357a3.674,3.674,0,0,1,0,7.348Z" fill="#3f3d56"/>
    <path id="Path_47" data-name="Path 47" d="M480.239,150.915h-166.6a3.674,3.674,0,1,1,0-7.348h166.6a3.674,3.674,0,0,1,0,7.348Z" fill="#3f3d56"/>
  </g>
  <path id="Path_48" data-name="Path 48" d="M36.121,504.385a1.186,1.186,0,0,0,1.19,1.19H559.6a1.19,1.19,0,1,0,0-2.38H37.311a1.187,1.187,0,0,0-1.19,1.19Z" fill="#3f3d56"/>
  <path id="Path_49" data-name="Path 49" d="M164.369,222.3c-.142,0-.283-.005-.425-.014a67.955,67.955,0,0,1-54.1-34.148,6.752,6.752,0,0,1,.69-7.7l31.66-37.722a6.9,6.9,0,0,1,5.32-2.407c1.4.033,4.715.387,5.358,2.942,3.8,15.1,19.863,32.847,39.177,35.2,1.958.238,3.529,1.984,4.2,4.672a6.66,6.66,0,0,1-1.335,5.916l-25.362,30.8a6.705,6.705,0,0,1-5.188,2.461Zm-16.977-80.472a5.311,5.311,0,0,0-4.036,1.865L111.7,181.412a5.23,5.23,0,0,0-.54,5.962,66.43,66.43,0,0,0,52.884,33.393,5.174,5.174,0,0,0,4.343-1.9l25.363-30.8a5.158,5.158,0,0,0,1.034-4.581c-.4-1.586-1.373-3.347-2.916-3.535-19.952-2.43-36.54-20.753-40.466-36.335-.318-1.262-2.232-1.755-3.918-1.795h-.09Z" fill="#3f3d56"/>
  <path id="Path_50" data-name="Path 50" d="M129.03,189.376,151.855,166.1c1.56-1.591-.884-4.039-2.446-2.446L126.584,186.93c-1.56,1.591.884,4.039,2.446,2.446Z" fill="#e6e6e6"/>
  <path id="Path_51" data-name="Path 51" d="M142.806,195.933a90.179,90.179,0,0,0,16.256-19.358c1.183-1.894-1.809-3.632-2.987-1.746a86.876,86.876,0,0,1-15.715,18.658c-1.661,1.489.792,3.929,2.446,2.446h0Z" fill="#e6e6e6"/>
  <path id="Path_52" data-name="Path 52" d="M155.223,203.784a95.517,95.517,0,0,0,14.462-21.093c1-1.984-1.986-3.738-2.987-1.746a92.139,92.139,0,0,1-13.921,20.393c-1.489,1.649.951,4.1,2.446,2.446Z" fill="#e6e6e6"/>
  <g id="Group_9" data-name="Group 9">
    <ellipse id="Ellipse_5" data-name="Ellipse 5" cx="23.013" cy="22.528" rx="23.013" ry="22.528" transform="translate(122.43 116.829)" fill="#be3b49"/>
    <path id="Path_53" data-name="Path 53" d="M157.417,150.043,146.8,123.938a1.308,1.308,0,0,0-2.5,0,115.388,115.388,0,0,0-6.881,28.349c-.187,1.653,2.4,1.64,2.59,0a110.672,110.672,0,0,1,1.888-11.3,27.228,27.228,0,0,0,8.671-.953l4.35,10.7c.62,1.523,3.126.857,2.5-.688Zm-14.931-11.614q1.308-5.356,3.131-10.57l3.969,9.758a25.009,25.009,0,0,1-7.1.811Z" fill="#fff"/>
  </g>
</svg>
