<svg xmlns="http://www.w3.org/2000/svg" width="434.247" height="761.186" viewBox="0 0 434.247 761.186">
  <g id="Group_1" data-name="Group 1" transform="translate(0 0)">
    <path id="Path_1" data-name="Path 1" d="M470.538,150.812,457.5,92.943l-4.254-18.852a6.013,6.013,0,0,0-7.194-4.534l-6.424,1.453L388.111,82.633a6,6,0,0,0-4.534,7.177c-2.766,25.749,2.7,49.5,14.546,71.732.875,1.663,1.8,3.326,2.766,4.989a5.935,5.935,0,0,0,1.7,3.011,6.025,6.025,0,0,0,5.479,1.523l6.757-1.523,4.166-.945L466,157.989a6,6,0,0,0,4.533-7.177Z" transform="translate(-382.871 -69.407)" fill="#e6e6e6"/>
    <path id="Path_2" data-name="Path 2" d="M465.147,147.591,452.719,92.54l-2.976-13.216a5.627,5.627,0,0,0-6.722-4.253l-3.956.893L393.222,86.309a5.627,5.627,0,0,0-4.253,6.722c.4,20.042,2.5,38.229,11.133,49.327a25.065,25.065,0,0,0,17.189,18.432c.1.035.192.07.3.1.07.018.158.053.228.07a24.88,24.88,0,0,0,12.236.315l30.842-6.967A5.627,5.627,0,0,0,465.147,147.591Z" transform="translate(-382.871 -69.407)" fill="#fff"/>
    <path id="Path_3" data-name="Path 3" d="M419.474,104.665a7.175,7.175,0,0,1,8.4-1.831c3.059,1.528,4.246,4.779,3.757,8.012-.546,3.611-2.432,6.9-2.6,10.6-.15,3.236,1.056,6.636,3.924,8.378,2.056,1.249,4.172-1.843,2.106-3.1-3.4-2.065-2.257-6.6-1.271-9.7,1.231-3.866,2.514-7.807.991-11.79a10.759,10.759,0,0,0-17.763-3.39c-1.622,1.749.82,4.6,2.463,2.824Z" transform="translate(-382.871 -69.407)" fill="#be3b49"/>
    <circle id="Ellipse_1" data-name="Ellipse 1" cx="3.747" cy="3.747" r="3.747" transform="translate(49.359 63.716)" fill="#be3b49"/>
    <path id="Path_4" data-name="Path 4" d="M671.786,793.624l-59.315-.354-19.324-.113c-3.321-.017-6.043,1.245-6.08,2.82l-.078,3.124-.651,25.047c-.049,1.565,2.608,2.865,5.928,2.882a251.579,251.579,0,0,0,73.149,1.186q2.731-.331,5.494-.727a11.219,11.219,0,0,0,3.323-.452c1.64-.506,2.724-1.373,2.753-2.36l.087-3.285.048-2.026.594-22.86C677.751,794.931,675.089,793.639,671.786,793.624Z" transform="translate(-382.871 -69.407)" fill="#e6e6e6"/>
    <path id="Path_5" data-name="Path 5" d="M667.4,795.757l-56.432-.327-13.545-.082c-3.1-.018-5.659,1.161-5.7,2.633l-.05,1.923L591.1,822.2c-.039,1.472,2.447,2.684,5.551,2.7,19.588,2.021,37.766,3.054,50.564.294,9.316.047,17.532-2.335,21.918-5.9.058-.045.113-.081.171-.126.033-.03.088-.067.121-.1a7.809,7.809,0,0,0,3.146-5.61l.382-15C672.991,796.987,670.505,795.775,667.4,795.757Z" transform="translate(-382.871 -69.407)" fill="#fff"/>
    <path id="Path_6" data-name="Path 6" d="M615.047,812.1c-1.73-1.229-1.911-2.9.168-4.075,2.2-1.243,5.634-1.433,8.665-.852,3.386.649,6.146,1.882,9.7,2.368,3.113.425,6.7.243,9.06-.888,1.692-.811-.825-2.128-2.525-1.313-2.8,1.341-6.948.314-9.73-.481-3.474-.994-7.01-2.02-11.238-1.755-7.693.481-11.706,4.778-7.42,7.822C613.054,813.87,616.389,813.056,615.047,812.1Z" transform="translate(-382.871 -69.407)" fill="#e6e6e6"/>
    <ellipse id="Ellipse_2" data-name="Ellipse 2" cx="3.747" cy="1.777" rx="3.747" ry="1.777" transform="translate(263.585 736.851)" fill="#e6e6e6"/>
    <path id="Path_7" data-name="Path 7" d="M386.231,359.365c-5.154-21.646-4.294-42.966,4.531-63.854a4.893,4.893,0,0,1,5.221-4.529l48.224,3.422a4.892,4.892,0,0,1,4.529,5.221L444.2,363.479a4.892,4.892,0,0,1-5.221,4.529l-48.224-3.422a4.892,4.892,0,0,1-4.529-5.221Z" transform="translate(-382.871 -69.407)" fill="#f2f2f2"/>
    <path id="Path_8" data-name="Path 8" d="M391.3,340.341c-4.125-10.667-1.487-25.337,2.913-41.051a4.582,4.582,0,0,1,4.889-4.241l41.444,2.941a4.582,4.582,0,0,1,4.242,4.889L440.755,359.7a4.582,4.582,0,0,1-4.889,4.241l-25.674-1.822A20.41,20.41,0,0,1,391.3,340.341Z" transform="translate(-382.871 -69.407)" fill="#fff"/>
    <path id="Path_9" data-name="Path 9" d="M419.992,343.125l-3.8-.653a12.752,12.752,0,0,0,.994-4.338c.6-7.992.66-16.06.979-24.068a1.518,1.518,0,0,0-2.561-1.061l-9.538,7.9c-1.488,1.233.644,3.345,2.121,2.121l6.846-5.67-.628,15.741c-.1,2.518.206,5.576-.825,7.944a3.825,3.825,0,0,1-.547.887l-4.2-.722c-1.008-.173-2.289.668-1.845,1.845.965,2.559,3.809,3.368,6.247,2.381a5.08,5.08,0,0,0,.622-.333l5.339.917C421.083,346.342,421.894,343.451,419.992,343.125Z" transform="translate(-382.871 -69.407)" fill="#f2f2f2"/>
    <path id="Path_10" data-name="Path 10" d="M561.231,365.365c-5.154-21.646-4.294-42.966,4.531-63.854a4.892,4.892,0,0,1,5.221-4.529l48.224,3.422a4.892,4.892,0,0,1,4.529,5.221L619.2,369.479a4.892,4.892,0,0,1-5.221,4.529l-48.224-3.422A4.893,4.893,0,0,1,561.231,365.365Z" transform="translate(-382.871 -69.407)" fill="#f2f2f2"/>
    <path id="Path_11" data-name="Path 11" d="M566.3,346.341c-4.125-10.667-1.487-25.337,2.913-41.051a4.582,4.582,0,0,1,4.889-4.241l41.444,2.941a4.582,4.582,0,0,1,4.242,4.889L615.755,365.7a4.582,4.582,0,0,1-4.889,4.241l-25.674-1.822A20.41,20.41,0,0,1,566.3,346.341Z" transform="translate(-382.871 -69.407)" fill="#fff"/>
    <path id="Path_12" data-name="Path 12" d="M593.354,335.507a8.447,8.447,0,0,0,1.555-.943,8.607,8.607,0,0,0,2.815-8.952c-1.945-7.144-10.49-7.188-16.39-6.328-1.9.277-1.094,3.168.8,2.893,3.976-.579,10.218-1.048,12.355,3.3a5.705,5.705,0,0,1-.913,6.285,5.554,5.554,0,0,1-3.376,1.605,8.923,8.923,0,0,0-3.928-.733c-1.39.066-2.165,2.087-.757,2.8a9.012,9.012,0,0,0,4.01.945,6.5,6.5,0,0,1,3.667,6.2A6.723,6.723,0,0,1,585.5,348.2c-1.885-.379-2.692,2.512-.8,2.893a9.75,9.75,0,0,0,11.456-8.19,9.111,9.111,0,0,0-2.8-7.4Z" transform="translate(-382.871 -69.407)" fill="#f2f2f2"/>
    <path id="Path_13" data-name="Path 13" d="M272.105,705.445H255.138L247.067,640l25.041,0Z" fill="#ffb6b6"/>
    <path id="Path_14" data-name="Path 14" d="M655.573,792.552l-52.175,0v-.66A20.309,20.309,0,0,1,623.7,771.583h0l9.53-7.23,17.782,7.231h4.555Z" transform="translate(-382.871 -69.407)" fill="#2f2e41"/>
    <path id="Path_15" data-name="Path 15" d="M350.105,741.445H333.138L325.067,676l25.041,0Z" fill="#ffb6b6"/>
    <path id="Path_16" data-name="Path 16" d="M733.573,828.552l-52.175,0v-.66A20.309,20.309,0,0,1,701.7,807.583h0l9.53-7.23,17.782,7.231h4.555Z" transform="translate(-382.871 -69.407)" fill="#2f2e41"/>
    <path id="Path_17" data-name="Path 17" d="M524.227,287.49a12.068,12.068,0,0,0,18.373-.454L600.452,303.5l8.489-14.882-68.854-19.056a12.051,12.051,0,0,0-15.86,17.925Z" transform="translate(-382.871 -69.407)" fill="#ffb6b6"/>
    <path id="Path_18" data-name="Path 18" d="M674.667,425.226,613.795,564.407l-7,22,21.163,154.416,34.16-1.667-.077-19.8s-8.129-4.409-.026-6.8,7.762-8.473-.068-17.434-.367-94.71-.367-94.71,32.237-30.87,28.726-38.935,3.008-8.065,3.008-8.065,6.95-1.243,7.216-4.621,5.416-10.171,5.416-10.171l-1.8,237.823h29.474s13.475-22.393,10.827-27.211-6.352-5.291,0-11.055,15.674-1.047,11.513-11.906-3.092-128.034-3.092-128.034,16.4-68,6.266-72.614-5.094-3.965.888-10.291-4.163-5.748.909-10.537,5.277-61.152,5.277-61.152Z" transform="translate(-382.871 -69.407)" fill="#2f2e41"/>
    <path id="Path_19" data-name="Path 19" d="M770.795,464.407c-42.67-.1-79.28,9.49-121.95,9.39,2.78-19.24,12.5-49.4,15.274-68.641,3.908-27.067.878-43.223,4.776-70.289.39-2.65.77-5.29,1.15-7.94,1.54-10.7-2.15-21.4,4.47-32.7,2.82-4.82,7.51-9.74,15.28-14.82,16.14,1.64,15.86-5.64,32-4l5.34,10.64c.68,4.04,3.13,6.67,6.45,8.66,6.83,4.13,17.35,5.57,23.67,11.16,7.94,7.02,7.41,18.25,5.05,29.21-.84,3.9-1.91,7.76-2.92,11.39-8.129,29.247,2.262,51.559,10.734,78.689.8,2.573-6.805,12.521-6,15,1.367,4.2,6.262,9.426,5.483,12.264C768.637,455.935,767.675,459.241,770.795,464.407Z" transform="translate(-382.871 -69.407)" fill="#be3b49"/>
    <path id="Path_20" data-name="Path 20" d="M762.3,335.077l-93.41-.21-3-.01-110.776-40.7,14.176.481,6.58-15.17,3.17-7.29L644.335,294l30.18.23,56.9.42c.73.01,1.45.03,2.17.06,6.83,4.13,17.35,5.57,23.67,11.16C765.2,312.887,764.665,324.117,762.3,335.077Z" transform="translate(-382.871 -69.407)" fill="#be3b49"/>
    <circle id="Ellipse_3" data-name="Ellipse 3" cx="30.355" cy="30.355" r="30.355" transform="translate(285.261 142.387)" fill="#ffb6b6"/>
    <path id="Path_21" data-name="Path 21" d="M694.173,268.241l2.473,7.906c5.483-2.707,21.039-6.462,25.6-10.53s8.1-9.68,8.312-15.791c.112-3.156-.653-6.339-.128-9.453.593-3.519,2.764-6.569,3.758-10a15.945,15.945,0,0,0-8.6-18.405c-5.032-2.211-10.786-1.591-16.256-2.125s-11.572-3.009-13.112-8.285c-.576-1.973-.51-4.3-2.272-5.59a4.312,4.312,0,0,0-5.71.826q-.122.138-.234.279c-4.63,5.809-13.357,6.24-17.924.381q-.448-.574-.861-1.175a9.948,9.948,0,0,0-.394,14.133,7.672,7.672,0,0,1-7.465-5.887c-2.095,2.893-4.245,5.911-4.918,9.419s.577,7.657,3.794,9.21a12.327,12.327,0,0,0,5.168.846c-8.3,9.817-3.32,9.534,13.487.256,8.338.158,5.045,7.906,5.153,16.245h0c3.924-.377,7.965-.746,11.676.907a8.962,8.962,0,0,1,4.165,3.579c2.452,4.212.019,8.59-2.137,12.422-1.843,3.275-3.591,7.219-2.061,10.652" transform="translate(-382.871 -69.407)" fill="#2f2e41"/>
    <path id="Path_22" data-name="Path 22" d="M638.926,522.715a12.068,12.068,0,0,0,3.656-18.012l28.958-52.72-12.613-11.6L624.99,503.256a12.051,12.051,0,0,0,13.935,19.459Z" transform="translate(-382.871 -69.407)" fill="#ffb6b6"/>
    <path id="Path_23" data-name="Path 23" d="M709.555,276.177,702.8,397.1l-32.52,75.99-21.166,28.069,2.406-12.719-14.59-7.3-1.37-.68,19.42-49.19,5.86-14.84,2.73-44.67,2.58-42.24a52.634,52.634,0,0,1,19.34-37.63l16.2-13.16Z" transform="translate(-382.871 -69.407)" fill="#be3b49"/>
    <path id="Path_24" data-name="Path 24" d="M482.231,276.365c-5.154-21.646-4.294-42.966,4.531-63.854a4.892,4.892,0,0,1,5.221-4.529l48.224,3.422a4.892,4.892,0,0,1,4.529,5.221L540.2,280.479a4.892,4.892,0,0,1-5.221,4.529l-48.224-3.422a4.892,4.892,0,0,1-4.529-5.221Z" transform="translate(-382.871 -69.407)" fill="#f2f2f2"/>
    <path id="Path_25" data-name="Path 25" d="M487.3,257.341c-4.125-10.667-1.487-25.337,2.913-41.051a4.582,4.582,0,0,1,4.889-4.241l41.444,2.941a4.582,4.582,0,0,1,4.242,4.889L536.755,276.7a4.582,4.582,0,0,1-4.889,4.241l-25.674-1.822A20.41,20.41,0,0,1,487.3,257.341Z" transform="translate(-382.871 -69.407)" fill="#fff"/>
    <path id="Path_26" data-name="Path 26" d="M512.785,228.747c-4.248-1.474-8.973,1.885-9.455,6.242-.546,4.937,4.764,8.835,9.362,7.493,1.85-.54,1.063-3.436-.8-2.893-3.37.984-6.965-2.655-5.028-5.909a4.431,4.431,0,0,1,4.527-2.215,5.018,5.018,0,0,1,3.344,3.035c1.654,3.726-.312,7.51-2.916,10.218-1.485,1.545-3.228,2.745-4.829,4.153a6.983,6.983,0,0,0-2.746,4.954,6,6,0,0,0,3.412,5.182c2.558,1.315,5.467.9,8.188.459,1.9-.306,1.094-3.2-.8-2.893-2.38.383-5.943.963-7.451-1.518-1.291-2.125,1.369-3.991,2.819-5.121,3.643-2.841,7.328-6.51,7.875-11.34C518.74,234.637,516.729,230.115,512.785,228.747Z" transform="translate(-382.871 -69.407)" fill="#be3b49"/>
    <path id="Path_27" data-name="Path 27" d="M762.87,813.26a2.269,2.269,0,0,0,1.645-3.933l-.156-.618.062-.148a6.094,6.094,0,0,1,11.241.042c1.839,4.428,4.179,8.864,4.756,13.546a18.028,18.028,0,0,1-.316,6.2,72.281,72.281,0,0,0,6.575-30.021,69.766,69.766,0,0,0-.433-7.783q-.359-3.178-.995-6.31a73.119,73.119,0,0,0-14.5-30.99,19.458,19.458,0,0,1-8.093-8.4,14.841,14.841,0,0,1-1.35-4.056c.394.052,1.486-5.949,1.188-6.317.549-.833,1.532-1.247,2.131-2.06,2.982-4.043,7.091-3.337,9.236,2.157,4.582,2.313,4.627,6.148,1.815,9.837-1.789,2.347-2.035,5.522-3.6,8.035.161.207.329.407.491.614a73.594,73.594,0,0,1,7.681,12.169,30.593,30.593,0,0,1,1.826-14.21c1.748-4.217,5.025-7.769,7.91-11.415a6.279,6.279,0,0,1,11.184,3.083l.017.161q-.643.363-1.259.77a3.078,3.078,0,0,0,1.241,5.6l.063.01a30.631,30.631,0,0,1-.807,4.579c3.7,14.316-4.29,19.53-15.7,19.764-.252.129-.5.258-.749.381a75.119,75.119,0,0,1,4.043,19.028,71.245,71.245,0,0,1-.052,11.5l.019-.136a18.825,18.825,0,0,1,6.427-10.87c4.946-4.063,11.933-5.559,17.268-8.824a3.533,3.533,0,0,1,5.411,3.437l-.022.143a20.673,20.673,0,0,0-2.319,1.117q-.643.363-1.259.77a3.078,3.078,0,0,0,1.241,5.6l.063.01.129.019a30.655,30.655,0,0,1-5.638,8.829c-2.315,12.5-12.256,13.683-22.89,10.044h-.006a75.1,75.1,0,0,1-5.044,14.726H763.321c-.065-.2-.123-.407-.181-.607a20.473,20.473,0,0,0,4.986-.3c-1.337-1.641-2.674-3.294-4.011-4.935a1.134,1.134,0,0,1-.084-.1c-.678-.84-1.363-1.673-2.041-2.512h0a29.991,29.991,0,0,1,.879-7.64Z" transform="translate(-382.871 -69.407)" fill="#f2f2f2"/>
    <path id="Path_28" data-name="Path 28" d="M561.319,829.4a1.186,1.186,0,0,0,1.19,1.19H815.8a1.19,1.19,0,0,0,0-2.38H562.509a1.187,1.187,0,0,0-1.19,1.19Z" transform="translate(-382.871 -69.407)" fill="#ccc"/>
    <path id="Path_29" data-name="Path 29" d="M433.807,171.94c-1.251,18.493-.65,39.482,13.705,53.2a32.862,32.862,0,0,0,11.783,7.3c1.824.643,2.609-2.254.8-2.893-7.375-2.6-13.176-8.312-17.042-14.992-4.532-7.83-6.261-16.863-6.639-25.816a153.144,153.144,0,0,1,.4-16.8c.13-1.927-2.87-1.919-3,0Z" transform="translate(-382.871 -69.407)" fill="#3f3d56"/>
    <path id="Path_30" data-name="Path 30" d="M456.169,214.26c3.558,1.653,7.288,3.335,10.1,6.146,2.568,2.564,4.361,6.3,3.32,9.959-1.707,6-9.308,8.257-14.608,9.687a1.5,1.5,0,0,0,.8,2.893c5.331-1.438,11.309-3.447,14.792-8.011,4.121-5.4,2.165-12.52-2.465-16.925-2.982-2.838-6.734-4.623-10.426-6.338-1.74-.808-3.265,1.777-1.514,2.59Z" transform="translate(-382.871 -69.407)" fill="#3f3d56"/>
  </g>
</svg>
